<?xml version="1.0" encoding="utf-8"?>
<!-- Generator: Adobe Illustrator 25.4.0, SVG Export Plug-In . SVG Version: 6.00 Build 0)  -->
<svg version="1.1" id="레이어_1" xmlns="http://www.w3.org/2000/svg" xmlns:xlink="http://www.w3.org/1999/xlink" x="0px"
	 y="0px" viewBox="0 0 1024 1024" style="enable-background:new 0 0 1024 1024;" xml:space="preserve">
<style type="text/css">
	.st0{fill:#DCFFFF;}
	.st1{fill:#FFC82E;}
	.st2{fill:#D0F66A;}
	.st3{fill:#FEBF63;}
	.st4{fill:#EAF887;}
	.st5{fill:#E61E00;}
	.st6{fill:#F0F0F0;}
</style>
<polygon class="st0" points="470.75,774.12 553.25,774.12 583,594.16 441,594.16 "/>
<polygon class="st1" points="583,594.16 598.39,501.06 425.61,501.06 441,594.16 "/>
<polygon class="st2" points="598.39,501.06 613.78,407.96 410.22,407.96 425.61,501.06 "/>
<polygon class="st3" points="613.78,407.96 628.98,316 395.02,316 410.22,407.96 "/>
<polygon class="st4" points="628.98,316 645.18,218.03 378.82,218.03 395.02,316 "/>
<polygon class="st5" points="371.08,171.15 652.92,171.15 645.18,218.03 378.82,218.03 "/>
<polygon class="st6" points="470.75,774.12 470.75,831.62 399.5,861.62 624.5,861.62 553.25,831.62 553.25,774.12 "/>
</svg>
