<?xml version="1.0" encoding="utf-8"?>
<!-- Generator: Adobe Illustrator 25.4.0, SVG Export Plug-In . SVG Version: 6.00 Build 0)  -->
<svg version="1.1" id="레이어_1" xmlns="http://www.w3.org/2000/svg" xmlns:xlink="http://www.w3.org/1999/xlink" x="0px"
	 y="0px" viewBox="0 0 1024 1024" style="enable-background:new 0 0 1024 1024;" xml:space="preserve">
<style type="text/css">
	.st0{fill:#FEFCDB;}
	.st1{fill:#F0FFFF;}
	.st2{fill:#FEBF63;}
	.st3{fill:#D0F66A;}
	.st4{fill:#F0F0F0;}
</style>
<path class="st0" d="M410.56,249.7c-5.09,12.66-10.53,30.91-10.53,52.93c-0.02,65.78,48.42,149.05,111.97,148.99
	c63.52-0.05,111.71-83.32,111.75-148.99c0.01-22.02-5.39-40.27-10.45-52.93"/>
<path class="st1" d="M400.03,303.63C387.76,385.93,450.79,452.67,512,452.62c61.15-0.05,124.02-66.78,111.75-148.99"/>
<polygon class="st2" points="313.25,205.33 328.25,249.04 410.56,249.7 613.3,249.7 695.49,249.7 710.49,205.33 "/>
<polygon class="st3" points="298.25,161.62 313.25,205.33 710.49,205.33 725.75,161.62 "/>
<polygon class="st4" points="497,451.62 527,451.62 527,836.99 654.5,861.62 369.5,861.62 497,836.99 "/>
</svg>
