<?xml version="1.0" encoding="utf-8"?>
<!-- Generator: Adobe Illustrator 25.4.0, SVG Export Plug-In . SVG Version: 6.00 Build 0)  -->
<svg version="1.1" id="레이어_1" xmlns="http://www.w3.org/2000/svg" xmlns:xlink="http://www.w3.org/1999/xlink" x="0px"
	 y="0px" viewBox="0 0 1024 1024" style="enable-background:new 0 0 1024 1024;" xml:space="preserve">
<style type="text/css">
	.st0{fill:#F0F0F0;}
	.st1{fill:#EAF887;}
	.st2{fill:#F5F5F5;}
	.st3{fill:#F0FFFF;}
</style>
<path class="st0" d="M497,774.12c4.05,0,8.11,0,12.16,0c5.95,0,11.89,0,17.84,0c0,20.59,0,41.17,0,61.76l127.5,25.74h-285
	L497,835.88V774.12z"/>
<path class="st1" d="M298.24,160.62c34.78,32.83,73.73,81.18,71.26,138.02c-2.01,46.32-29.9,60.96-49.96,121.49
	c-6.73,20.31-31.4,102.59,0,190.19c25.22,70.36,90.07,153.83,177.46,162.8c11.47,1.18,21.47,0.88,30,0
	c87.33-9.01,151.7-92.87,176.67-162.8c30.88-86.48,7.3-167.89,0-190.19c-19.82-60.54-47.3-75.27-49.17-121.49
	c-2.3-57.04,36.69-105.37,71.26-138.02"/>
<path class="st2" d="M319.54,420.14c-9.75,28.5-31.59,105.49,0,190.19c24.32,65.22,87.24,153.54,177.46,162.8
	c11.47,1.18,21.47,0.88,30,0c90.28-9.32,152.65-98.26,176.67-162.8c31.5-84.63,9.78-161.54,0-190.19"/>
<path class="st3" d="M319.54,617.32c12.42,25.99,75.15,151.65,177.46,162.8c6.73,0.73,17.38,1.38,30,0
	c102.28-11.19,164.48-137.04,176.67-162.8"/>
</svg>
