<?xml version="1.0" encoding="utf-8"?>
<!-- Generator: Adobe Illustrator 25.4.0, SVG Export Plug-In . SVG Version: 6.00 Build 0)  -->
<svg version="1.1" id="레이어_1" xmlns="http://www.w3.org/2000/svg" xmlns:xlink="http://www.w3.org/1999/xlink" x="0px"
	 y="0px" viewBox="0 0 1024 1024" style="enable-background:new 0 0 1024 1024;" xml:space="preserve">
<style type="text/css">
	.st0{fill:#B4FFFF;}
	.st1{fill:#DCFFFF;}
	.st2{fill:#E61E00;}
	.st3{fill:#FFF798;}
	.st4{fill:#D0F66A;}
	.st5{fill:#FFC82E;}
	.st6{fill:#F0F0F0;}
</style>
<path class="st0" d="M410.56,248.18c-5.15,15.29-11.83,41.54-9.17,74.09c1.41,17.17,3.87,47.29,24.44,76.38
	c7.25,10.25,36.92,52.22,86.31,52.7c50.39,0.49,81.16-42.59,87.83-51.94c21.67-30.34,23.47-62.25,24.44-79.43
	c1.79-31.68-5.33-57.04-10.69-71.79"/>
<path class="st1" d="M400.63,319.21c0.11,13.6,2.23,46.39,24.44,77.9c7.56,10.73,37.26,52.87,87.07,53.46
	c49.76,0.6,80.45-40.73,87.07-49.64c24.8-33.39,25.52-69.28,25.2-81.72"/>
<path class="st2" d="M424.3,399.41c1.5,2.57,30.42,50.21,87.07,51.17c36.78,0.63,71.24-18.66,90.12-50.41"/>
<polygon class="st3" points="317.6,219.7 328.25,249.04 410.56,249.04 613.3,249.04 695.49,249.04 704.48,219.7 "/>
<polygon class="st4" points="308.7,190.62 318.6,219.7 705.48,219.7 717.65,190.62 "/>
<polygon class="st5" points="297.25,161.62 306.7,190.62 718.48,190.62 724.75,161.62 "/>
<polygon class="st6" points="497,450.62 527,450.62 527,835.99 654.5,860.62 369.5,860.62 497,835.99 "/>
</svg>
