<?xml version="1.0" encoding="utf-8"?>
<!-- Generator: Adobe Illustrator 25.4.0, SVG Export Plug-In . SVG Version: 6.00 Build 0)  -->
<svg version="1.1" id="레이어_1" xmlns="http://www.w3.org/2000/svg" xmlns:xlink="http://www.w3.org/1999/xlink" x="0px"
	 y="0px" viewBox="0 0 1024 1024" style="enable-background:new 0 0 1024 1024;" xml:space="preserve">
<style type="text/css">
	.st0{fill:#F5F5F5;}
	.st1{fill:#51FF45;}
	.st2{fill:#FEFCDB;}
	.st3{fill:#F0F0F0;}
</style>
<path class="st0" d="M230.77,154.49c1.58,28.37,10.12,116.49,78.89,193.28c17.23,19.24,91.03,101.64,208.27,100.98
	c111.82-0.63,182.68-76.38,202.75-97.82c72.7-77.7,83.08-168.49,85.2-197.22"/>
<path class="st1" d="M258.96,267.51c37,111.32,141.9,186.84,259.18,186.6c117.18-0.24,221.7-76.05,258.34-187.39"/>
<path class="st2" d="M314.03,362.34c7.53,10.02,79.62,102.48,205.11,101.77c126.72-0.72,197.98-95.83,205.11-105.71
	C587.51,359.71,450.77,361.03,314.03,362.34z"/>
<path class="st3" d="M502.52,464.11l27.73-0.31v269.83l135.41,65.53c-99.52-0.04-199.04-0.08-298.56-0.12l135.42-65.41
	L502.52,464.11L502.52,464.11z"/>
</svg>
