<?xml version="1.0" encoding="utf-8"?>
<!-- Generator: Adobe Illustrator 25.4.0, SVG Export Plug-In . SVG Version: 6.00 Build 0)  -->
<svg version="1.1" id="레이어_1" xmlns="http://www.w3.org/2000/svg" xmlns:xlink="http://www.w3.org/1999/xlink" x="0px"
	 y="0px" viewBox="0 0 1024 1024" style="enable-background:new 0 0 1024 1024;" xml:space="preserve">
<style type="text/css">
	.st0{fill:#F0F0F0;}
	.st1{fill:#FFF798;}
	.st2{fill:#EAF887;}
	.st3{fill:#E1FF5A;}
	.st4{fill:#F0FFFF;}
	.st5{fill:#46E600;}
</style>
<path class="st0" d="M497,774.12c4.05,0,8.11,0,12.16,0c5.95,0,11.89,0,17.84,0c0,20.59,0,41.17,0,61.76l127.5,25.74h-285
	L497,835.88V774.12z"/>
<path class="st1" d="M298.35,154.56c63.86,60.14,74.79,106.95,73.05,138.51c-3.21,58.1-49.96,74.74-66.41,164.12
	c-10.55,57.31-0.51,100.34,1.9,110.05c12.08,48.67,36.11,79.67,55.97,105.31c29.1,37.56,70.12,90.49,135.66,97.72
	c5.46,0.6,15.99,1.43,29.41,0c68.99-7.34,112.12-63.41,138.51-97.72c18.37-23.89,43.38-57.12,55.02-108.15
	c2.16-9.48,11.56-53.28,0-111c-17.43-87.01-61.88-102.8-65.46-159.38c-1.98-31.25,8.33-77.63,70.2-137.56"/>
<path class="st2" d="M368.51,291.07c-24.97,36.63-53.87,91.27-64.51,161.28c-4.36,28.68-9.57,65.44,1.9,111
	c11.43,45.38,33.03,74.13,55.02,103.41c31.78,42.3,71.97,95.79,134.71,101.51c12.68,1.16,22.16-0.01,29.41-0.95
	c73.45-9.49,118.79-67.76,141.36-96.77c16.02-20.59,42.04-54.78,54.08-107.2c10.62-46.24,4.93-83.02,0-112.89
	c-5.72-34.69-20.49-94.69-64.51-160.33"/>
<path class="st3" d="M305.94,445.4c-4.91,22.62-10.53,63.14,0.95,111c12.11,50.49,36.82,82.28,56.92,108.15
	c28.73,36.97,69.46,89.38,134.71,96.77c6.06,0.69,16.83,1.49,30.36,0c68.17-7.51,110.65-62.73,137.56-97.72
	c19.62-25.5,43.61-57.41,55.02-107.2c11.28-49.23,4.45-90.57-0.95-112.89"/>
<path class="st4" d="M305.94,570.4c17.01,49.27,39.68,84.48,55.97,106.25c28.55,38.15,70.36,94.03,137.56,101.51
	c6.37,0.71,16.65,1.39,29.41,0c68.64-7.5,111.31-64.53,137.56-99.61c16.73-22.36,39.34-58.15,55.02-108.15"/>
<path class="st5" d="M364,682c13.41,20.33,60.57,86.47,134.87,94.56c5.48,0.6,17.5,1.57,32.47-0.24
	c74.14-8.97,122.01-74.4,136.52-96.01"/>
</svg>
