<?xml version="1.0" encoding="utf-8"?>
<!-- Generator: Adobe Illustrator 25.4.0, SVG Export Plug-In . SVG Version: 6.00 Build 0)  -->
<svg version="1.1" id="기본_레이어" xmlns="http://www.w3.org/2000/svg" xmlns:xlink="http://www.w3.org/1999/xlink" x="0px"
	 y="0px" viewBox="0 0 1024 1024" style="enable-background:new 0 0 1024 1024;" xml:space="preserve">
<style type="text/css">
	.st0{fill:#CAF9F1;}
	.st1{fill:#1FC61A;}
	.st2{fill:#D0EFCE;}
	.st3{fill:#35C4E5;}
	.st4{fill:#E6F2F4;}
	.st5{fill:#FFFFFF;stroke:#000000;stroke-miterlimit:10;}
	.st6{font-family:'AdobeMyungjoStd-Medium-KSCpc-EUC-H';}
	.st7{font-size:40px;}
	.st8{font-size:30px;}
</style>
<polygon class="st0" points="369.5,861.62 654.5,861.62 678.44,648.82 347.84,648.82 "/>
<polygon class="st1" points="347.84,648.82 678.44,648.82 695.48,497.38 332.43,497.38 "/>
<polygon class="st2" points="325.48,429.19 703.15,429.19 695.48,497.38 332.43,497.38 "/>
<polygon class="st3" points="320.63,381.52 708.51,381.52 703.15,429.19 325.48,429.19 "/>
<polygon class="st4" points="302.76,205.91 728.27,205.91 708.51,381.52 320.63,381.52 "/>
<line class="st5" x1="237.8" y1="293.71" x2="357.91" y2="293.71"/>
<text transform="matrix(1 0 0 1 52.2866 306.9146)" class="st6 st7">라임주스</text>
<line class="st5" x1="227.73" y1="469.78" x2="347.84" y2="469.78"/>
<text transform="matrix(1 0 0 1 80.6678 481.5911)" class="st6 st7">민트잎</text>
<line class="st5" x1="660.04" y1="405.35" x2="780.16" y2="405.35"/>
<text transform="matrix(1 0 0 1 804.0333 418.5844)" class="st6 st7">럼</text>
<text transform="matrix(1 0 0 1 83.9878 958.5714)" class="st6 st8">럼</text>
<text transform="matrix(1 0 0 1 240.3765 959.0516)" class="st6 st8">60ml</text>
<text transform="matrix(1 0 0 1 87.5576 913.7841)" class="st6 st8">라임주스</text>
<text transform="matrix(1 0 0 1 237.7965 913.7846)" class="st6 st8">30ml</text>
</svg>
