<?xml version="1.0" encoding="utf-8"?>
<!-- Generator: Adobe Illustrator 25.4.0, SVG Export Plug-In . SVG Version: 6.00 Build 0)  -->
<svg version="1.1" id="레이어_1" xmlns="http://www.w3.org/2000/svg" xmlns:xlink="http://www.w3.org/1999/xlink" x="0px"
	 y="0px" viewBox="0 0 1024 1024" style="enable-background:new 0 0 1024 1024;" xml:space="preserve">
<style type="text/css">
	.st0{fill:none;stroke:#000000;stroke-miterlimit:10;}
	.st1{fill:#F0F0F0;}
	.st2{fill:#FAFADC;}
	.st3{fill:#F5F5F5;}
	.st4{fill:#A01E00;}
	.st5{fill:#F0FFFF;}
</style>
<g id="레이어_2_00000136408919883558526530000004265970785475890818_">
</g>
<rect x="215.25" y="148" class="st0" width="600" height="730"/>
<g id="레이어_3">
</g>
<polyline class="st1" points="665.66,794.16 630.3,779.04 530.25,728.63 530.25,435.22 502.52,435.22 502.52,728.63 402.46,779.04 
	367.1,794.16 "/>
<path class="st2" d="M230,159c5.28,155.01,134.72,279.08,289,278c153.15-1.07,280.3-125.11,285-279"/>
<path class="st3" d="M236,215c30.87,130.13,148.32,222.57,282,222c133.53-0.57,250.09-93.8,280-224"/>
<path class="st4" d="M267,292c3.88,6.59,87.21,142.44,249,143c163.09,0.56,247.4-136.89,251-143"/>
<path class="st5" d="M314,356c14.87,14.21,87.9,81,202,81c20.57,0,119.51-2.17,202-81"/>
</svg>
